<svg width="48" height="48" viewBox="0 0 56 56" fill="none" xmlns="http://www.w3.org/2000/svg">
  <path d="M28 0.307678C12.7347 0.307678 0.307739 12.7231 0.307739 28C0.307739 43.2654 12.7347 55.6923 28 55.6923C43.2654 55.6923 55.6924 43.2654 55.6924 28C55.6924 12.7231 43.2654 0.307678 28 0.307678ZM8.18274 17.83C13.1812 14.5761 18.0331 13.7731 18.25 13.7384C18.9308 13.5884 19.6924 13.5077 20.4193 13.5077C23.35 13.5077 25.5885 14.7769 26.9385 15.8269C28.1847 16.8077 29.027 18.1 29.4308 19.6808C29.5 19.9 29.5693 20.2461 29.6154 20.6384C29.7432 21.9532 29.5529 23.2793 29.0604 24.505C26.6166 22.1165 18.9527 15.8915 8.18274 17.83ZM24.9424 29.0615C23.9847 29.4884 23.0616 29.6961 22.127 29.6961C20.6731 29.6961 19.7154 29.1884 19.6 29.1308C17.0616 27.9308 15.4924 26.1423 14.6154 24.8615C14.2577 24.3423 13.8193 23.7308 13.3116 23.1769C11.3581 21.1265 9.24889 20.3223 8.58197 20.1019C19.4166 18.1658 26.8797 25.4673 27.8847 26.5761C27.3334 27.3 26.6714 27.9323 25.9231 28.45C25.3462 28.8538 24.9424 29.0615 24.9424 29.0615ZM42.6885 35.9615C42.1808 36.5038 41.7424 37.1154 41.3731 37.6461C40.1052 39.4994 38.3696 40.9843 36.3424 41.95C36.2847 41.9731 35.327 42.4808 33.8731 42.4808C32.9385 42.4808 32.0154 42.2731 31.127 41.8808C31.0577 41.8461 30.6539 41.6384 30.0654 41.2346C29.3428 40.7297 28.7006 40.1186 28.1604 39.4219C29.6766 37.8746 37.2077 31.1188 47.5174 32.8531C46.9624 33.0284 44.7297 33.8188 42.6885 35.9615ZM26.9766 37.3831C26.4564 36.1319 26.2531 34.7717 26.3847 33.4231C26.4308 33.0308 26.5 32.6846 26.5924 32.3846C26.9731 30.8846 27.8039 29.5923 29.0616 28.6115C30.4116 27.5615 32.6385 26.2923 35.5693 26.2923C36.3077 26.2923 37.0577 26.3731 37.8077 26.5346C37.9543 26.5577 42.737 27.3515 47.7077 30.5442C37.2989 28.8781 29.6039 34.9 26.9766 37.3831Z" fill="#2563eb"/>
  <path d="M8.18274 17.83C13.1812 14.5761 18.0331 13.7731 18.25 13.7384C18.9308 13.5884 19.6924 13.5077 20.4193 13.5077C23.35 13.5077 25.5885 14.7769 26.9385 15.8269C28.1847 16.8077 29.027 18.1 29.4308 19.6808C29.5 19.9 29.5693 20.2461 29.6154 20.6384C29.7432 21.9532 29.5529 23.2793 29.0604 24.505C26.6166 22.1165 18.9527 15.8915 8.18274 17.83ZM24.9424 29.0615C23.9847 29.4884 23.0616 29.6961 22.127 29.6961C20.6731 29.6961 19.7154 29.1884 19.6 29.1308C17.0616 27.9308 15.4924 26.1423 14.6154 24.8615C14.2577 24.3423 13.8193 23.7308 13.3116 23.1769C11.3581 21.1265 9.24889 20.3223 8.58197 20.1019C19.4166 18.1658 26.8797 25.4673 27.8847 26.5761C27.3334 27.3 26.6714 27.9323 25.9231 28.45C25.3462 28.8538 24.9424 29.0615 24.9424 29.0615ZM42.6885 35.9615C42.1808 36.5038 41.7424 37.1154 41.3731 37.6461C40.1052 39.4994 38.3696 40.9843 36.3424 41.95C36.2847 41.9731 35.327 42.4808 33.8731 42.4808C32.9385 42.4808 32.0154 42.2731 31.127 41.8808C31.0577 41.8461 30.6539 41.6384 30.0654 41.2346C29.3428 40.7297 28.7006 40.1186 28.1604 39.4219C29.6766 37.8746 37.2077 31.1188 47.5174 32.8531C46.9624 33.0284 44.7297 33.8188 42.6885 35.9615ZM26.9766 37.3831C26.4564 36.1319 26.2531 34.7717 26.3847 33.4231C26.4308 33.0308 26.5 32.6846 26.5924 32.3846C26.9731 30.8846 27.8039 29.5923 29.0616 28.6115C30.4116 27.5615 32.6385 26.2923 35.5693 26.2923C36.3077 26.2923 37.0577 26.3731 37.8077 26.5346C37.9543 26.5577 42.737 27.3515 47.7077 30.5442C37.2989 28.8781 29.6039 34.9 26.9766 37.3831Z" fill="#FFFFFF"/>
</svg>